# xmcd
#
# Track frame offsets: 
#        150
#        17080
#        31829
#        56591
#        69334
#        78769
#        96979
#        107340
#        112614
#        123006
#        137664
#        157310
#        175666
#        196779
#        211507
#        226143
#        236739
#        251340
#        271596
#        302711
#        317742
#
# Disc length: 4570 seconds
#
# Revision: 4
# Processed by: cddbd v1.5.2PL0 Copyright (c) Steve Scherf et al.
# Submitted via: ExactAudioCopy v0.95b4
#
DISCID=f911d815
DTITLE=Various Artist - Alan Lomax - Blues Songbook [CD2]
DYEAR=2003
DGENRE=Blues
TTITLE0=Sonny Boy Williamson, Memphis Slim, Big Bill Broonzy - I Could
TTITLE0=Hear My Name A Ringin'
TTITLE1=Joe Lee, Boy Blue, Darnel Walker - Dimples In Your Jaws
TTITLE2=Jack Owens and Bud Spires - Catfish Blues
TTITLE3=Blind Willie McTell - Kill-It-Kid Rag
TTITLE4=Elinor Boyer - You're Gonna Need My Help
TTITLE5=David "Honeyboy" Edwards - The Army Blues
TTITLE6=Canray Fontenot and Bois Sec Ardoin - Blues de la Prison
TTITLE7=Vera Ward Hall - I Been Drinkin'
TTITLE8=Ozella Jones - I Been A Bad, Bad Girl
TTITLE9=Muddy Waters - I Be's Troubled
TTITLE10=R.L. Burnside - Boogie Instrumental
TTITLE11=Lead Belly - Blind Lemon Blues
TTITLE12=Albert Ammons - Sweet Patootie Blues
TTITLE13=Sam Chatmon - The Last Time
TTITLE14=Smith Casey - Shorty George
TTITLE15=Hattie Ellis and Cowboy Jack Ramsey - Desert Blues
TTITLE16=Ed Young and Hobart Smith - Joe Turner
TTITLE17=Miles and Bob Pratcher - Joe Turner
TTITLE18=Big Bill Broonzy - Joe Turner
TTITLE19=Hobart Smith - See That My Grave is Kept Clean
TTITLE20=Lead Belly, Sonny Terry, Brownie McGhee - How Long Blues
EXTD=
EXTT0=
EXTT1=
EXTT2=
EXTT3=
EXTT4=
EXTT5=
EXTT6=
EXTT7=
EXTT8=
EXTT9=
EXTT10=
EXTT11=
EXTT12=
EXTT13=
EXTT14=
EXTT15=
EXTT16=
EXTT17=
EXTT18=
EXTT19=
EXTT20=
PLAYORDER=
